<svg id="Layer_1" data-name="Layer 1" xmlns="http://www.w3.org/2000/svg" viewBox="0 0 550.43 128.26"><defs><style>.cls-1{isolation:isolate;}.cls-2{fill:#e76c90;}</style></defs><title>logo_header</title><g class="cls-1"><path class="cls-2" d="M12.52,34.91A7.43,7.43,0,0,1,20,27.39a7.43,7.43,0,0,1,7.52,7.52A7.43,7.43,0,0,1,20,42.42a7.43,7.43,0,0,1-7.52-7.51ZM15,65.47h10v77.15H15Z" transform="translate(-12.52 -16.37)"/><path class="cls-2" d="M54.77,24.38H91.35q15.36,0,26.05,3.76a58.19,58.19,0,0,1,17.78,9.6,47.66,47.66,0,0,1,11.19,12.95,63.76,63.76,0,0,1,6,13.61,64.6,64.6,0,0,1,2.42,11.77q.49,5.27.5,7.43t-.5,7.43a64.69,64.69,0,0,1-2.42,11.78,63.76,63.76,0,0,1-6,13.61,47.63,47.63,0,0,1-11.19,12.94,57.77,57.77,0,0,1-17.78,9.6q-10.7,3.76-26.05,3.76H54.77Zm11,108.22H88.51a79,79,0,0,0,21.88-2.92,50.17,50.17,0,0,0,17.7-8.94,41.94,41.94,0,0,0,11.85-15.28q4.35-9.27,4.35-22t-4.35-22a42,42,0,0,0-11.85-15.28,50.16,50.16,0,0,0-17.7-8.93A79,79,0,0,0,88.51,34.4H65.8Z" transform="translate(-12.52 -16.37)"/><path class="cls-2" d="M245.32,128.09a33.81,33.81,0,0,1-14.44,12.69,46,46,0,0,1-19,3.84,41.18,41.18,0,0,1-16-3,36.2,36.2,0,0,1-12.36-8.44,37,37,0,0,1-7.93-12.85,47,47,0,0,1-2.76-16.45,44.22,44.22,0,0,1,2.84-16,38.33,38.33,0,0,1,8-12.77,37.55,37.55,0,0,1,12.19-8.52,38.08,38.08,0,0,1,15.53-3.09A37.17,37.17,0,0,1,227,66.55a34.25,34.25,0,0,1,11.36,8.18,34.76,34.76,0,0,1,6.93,11.61,38.75,38.75,0,0,1,2.34,13.19v7h-64.8a34.1,34.1,0,0,0,1.26,8.1,28.55,28.55,0,0,0,4.59,9.6,29,29,0,0,0,8.93,8q5.6,3.33,14.45,3.34A32.24,32.24,0,0,0,227,131.93a26.76,26.76,0,0,0,11-10Zm-7.68-30.56a22.84,22.84,0,0,0-2.09-9.69,25.8,25.8,0,0,0-5.68-7.93,27,27,0,0,0-8.51-5.43,27.59,27.59,0,0,0-10.44-2q-8.19,0-13.61,3.34a29.8,29.8,0,0,0-8.6,7.68,30.47,30.47,0,0,0-4.51,8.44,22.48,22.48,0,0,0-1.34,5.59Z" transform="translate(-12.52 -16.37)"/><path class="cls-2" d="M334.67,131.26a36.13,36.13,0,0,1-12.86,10.11,37.2,37.2,0,0,1-15.53,3.25,43.73,43.73,0,0,1-16.37-3,37.22,37.22,0,0,1-12.86-8.44,38.78,38.78,0,0,1-8.35-12.85,45.56,45.56,0,0,1,0-32.57,38.93,38.93,0,0,1,8.35-12.86,37.2,37.2,0,0,1,12.86-8.43,43.54,43.54,0,0,1,16.37-3A35.83,35.83,0,0,1,322.06,67,41.59,41.59,0,0,1,335,76.82l-8,6a34.66,34.66,0,0,0-9.52-7.59,23.4,23.4,0,0,0-11.18-2.76A31.16,31.16,0,0,0,293.58,75a29.43,29.43,0,0,0-9.68,6.76,28.73,28.73,0,0,0-6.1,10,37.09,37.09,0,0,0,0,24.55,28.73,28.73,0,0,0,6.1,10,29.43,29.43,0,0,0,9.68,6.76,31.16,31.16,0,0,0,12.7,2.51,23.44,23.44,0,0,0,11.6-2.93,30.13,30.13,0,0,0,9.1-7.76Z" transform="translate(-12.52 -16.37)"/><path class="cls-2" d="M349.53,34.91a7.52,7.52,0,1,1,12.86,5.34,7.52,7.52,0,0,1-12.86-5.34ZM352,65.47h10v77.15H352Z" transform="translate(-12.52 -16.37)"/><path class="cls-2" d="M457.91,129.09h-.34a25.86,25.86,0,0,1-5.84,6.93,35.12,35.12,0,0,1-7.6,4.85,38.4,38.4,0,0,1-8.6,2.84,44.48,44.48,0,0,1-8.85.91,43.77,43.77,0,0,1-16.37-3,37.31,37.31,0,0,1-12.86-8.44,38.94,38.94,0,0,1-8.35-12.85,45.7,45.7,0,0,1,0-32.57,39.09,39.09,0,0,1,8.35-12.86,37.29,37.29,0,0,1,12.86-8.43,43.57,43.57,0,0,1,16.37-3,44.5,44.5,0,0,1,8.85.92,37.9,37.9,0,0,1,8.6,2.84,35.46,35.46,0,0,1,7.6,4.84A26,26,0,0,1,457.57,79h.34V16.37h10V142.62h-10Zm1-25a30.43,30.43,0,0,0-2.5-12.27,31.54,31.54,0,0,0-6.85-10A32.91,32.91,0,0,0,439.37,75a31.9,31.9,0,0,0-12.69-2.51A31.08,31.08,0,0,0,414,75a29.37,29.37,0,0,0-9.69,6.76,28.71,28.71,0,0,0-6.09,10,37.09,37.09,0,0,0,0,24.55,28.71,28.71,0,0,0,6.09,10A29.37,29.37,0,0,0,414,133.1a31.08,31.08,0,0,0,12.69,2.51,31.9,31.9,0,0,0,12.69-2.51,32.91,32.91,0,0,0,10.19-6.76,31.54,31.54,0,0,0,6.85-10A30.48,30.48,0,0,0,458.91,104Z" transform="translate(-12.52 -16.37)"/><path class="cls-2" d="M560.61,128.09a33.81,33.81,0,0,1-14.44,12.69,46,46,0,0,1-19,3.84,41.22,41.22,0,0,1-16-3,36.2,36.2,0,0,1-12.36-8.44,37,37,0,0,1-7.93-12.85,47,47,0,0,1-2.76-16.45,44.22,44.22,0,0,1,2.84-16,38.49,38.49,0,0,1,8-12.77,37.55,37.55,0,0,1,12.19-8.52,38.11,38.11,0,0,1,15.53-3.09,37.25,37.25,0,0,1,15.62,3.09,34.31,34.31,0,0,1,11.35,8.18,34.76,34.76,0,0,1,6.93,11.61A38.75,38.75,0,0,1,563,99.53v7h-64.8a34.1,34.1,0,0,0,1.26,8.1,28.55,28.55,0,0,0,4.59,9.6,29,29,0,0,0,8.93,8q5.6,3.33,14.45,3.34a32.24,32.24,0,0,0,14.86-3.68,26.76,26.76,0,0,0,11-10Zm-7.68-30.56a22.84,22.84,0,0,0-2.09-9.69,25.94,25.94,0,0,0-5.67-7.93,27.11,27.11,0,0,0-8.52-5.43,27.59,27.59,0,0,0-10.44-2q-8.19,0-13.61,3.34A29.8,29.8,0,0,0,504,83.5a30.47,30.47,0,0,0-4.51,8.44,22.48,22.48,0,0,0-1.34,5.59Z" transform="translate(-12.52 -16.37)"/></g></svg>